<?xml version="1.0" encoding="UTF-8"?> <svg xmlns="http://www.w3.org/2000/svg" width="296" height="74" viewBox="0 0 296 74" fill="none"> <path d="M46.6507 58.3745L31.7851 73.4372L16.8561 58.3103L46.6507 58.3745Z" fill="#602B7A"></path> <path d="M31.5951 16.0073L36.3068 29.2536H26.8835L31.5951 16.0073Z" fill="#602B7A"></path> <path d="M64.6368 34.2452C66.0782 35.674 67.8643 36.3883 69.995 36.3883C72.1257 36.3883 73.8961 35.674 75.3062 34.2452C76.7476 32.8165 77.4683 31.0385 77.4683 28.9113C77.4683 26.784 76.7476 25.006 75.3062 23.5773C73.8961 22.1485 72.1257 21.4342 69.995 21.4342C67.8643 21.4342 66.0782 22.1485 64.6368 23.5773C63.2268 25.006 62.5217 26.784 62.5217 28.9113C62.5217 31.0385 63.2268 32.8165 64.6368 34.2452Z" fill="#602B7A"></path> <path d="M98.3509 36.6741C96.2828 36.6741 94.5437 35.9597 93.1337 34.531C91.7237 33.1022 91.0186 31.3084 91.0186 29.1494C91.0186 26.9904 91.7237 25.1965 93.1337 23.7678C94.5437 22.339 96.2828 21.6247 98.3509 21.6247C100.419 21.6247 102.158 22.339 103.568 23.7678C104.978 25.1965 105.683 26.9904 105.683 29.1494C105.683 31.3084 104.978 33.1022 103.568 34.531C102.158 35.9597 100.419 36.6741 98.3509 36.6741Z" fill="#602B7A"></path> <path fill-rule="evenodd" clip-rule="evenodd" d="M296 0H0V58.4123H296V0ZM132.844 15.918C133.721 15.918 134.473 15.6005 135.1 14.9655C135.758 14.2987 136.087 13.5208 136.087 12.6319C136.087 11.7429 135.774 10.9809 135.147 10.3459C134.52 9.67912 133.752 9.34575 132.844 9.34575C131.935 9.34575 131.167 9.67912 130.541 10.3459C129.914 10.9809 129.601 11.7429 129.601 12.6319C129.601 13.5208 129.914 14.2987 130.541 14.9655C131.199 15.6005 131.966 15.918 132.844 15.918ZM130.306 18.9282V41.0556H135.382V18.9282H130.306ZM37.9697 34.3759L40.8084 41.0634H46.5633L34.3667 9.54823H28.8236L16.6288 41.0634H22.4301L25.2206 34.3759H37.9697ZM48.9001 9.54829V41.0556H53.9763V9.54829H48.9001ZM77.4683 17.2432H82.4504V39.9602C82.4504 43.5797 81.2754 46.3578 78.9253 48.2945C76.5752 50.2313 73.7238 51.1996 70.371 51.1996C64.9502 51.1996 61.237 49.2788 59.2316 45.437L63.6028 42.8653C64.8248 45.31 67.1122 46.5324 70.465 46.5324C72.6584 46.5324 74.3661 45.945 75.5882 44.7703C76.8416 43.6273 77.4683 42.0239 77.4683 39.9602V37.0551C75.5569 39.8173 72.8308 41.1984 69.29 41.1984C65.9685 41.1984 63.1641 40.0078 60.8767 37.6266C58.5893 35.2136 57.4456 32.3085 57.4456 28.9113C57.4456 25.514 58.5893 22.6248 60.8767 20.2436C63.1641 17.8306 65.9685 16.6241 69.29 16.6241C72.8308 16.6241 75.5569 18.0052 77.4683 20.7674V17.2432ZM89.5616 38.0552C91.9743 40.4682 94.9041 41.6747 98.3509 41.6747C101.829 41.6747 104.759 40.4682 107.14 38.0552C109.553 35.6422 110.759 32.6736 110.759 29.1494C110.759 25.6252 109.553 22.6565 107.14 20.2436C104.759 17.8306 101.829 16.6241 98.3509 16.6241C94.9041 16.6241 91.9743 17.8306 89.5616 20.2436C87.1488 22.6565 85.9425 25.6252 85.9425 29.1494C85.9425 32.6736 87.1488 35.6422 89.5616 38.0552ZM119.317 21.2437C120.602 18.2909 123.014 16.8146 126.555 16.8146V22.3867C124.612 22.2597 122.92 22.7359 121.479 23.8154C120.038 24.8632 119.317 26.6094 119.317 29.0541V41.0556H114.241V17.2432H119.317V21.2437ZM154.389 22.1962H148.561V33.6261C148.561 34.6104 148.78 35.3247 149.219 35.7692C149.658 36.182 150.3 36.4201 151.146 36.4836C152.023 36.5153 153.105 36.4995 154.389 36.436V41.0556C150.504 41.5318 147.715 41.1984 146.023 40.0555C144.331 38.8807 143.485 36.7376 143.485 33.6261V22.1962H139.161V17.2432H143.485V12.0997L148.561 10.5757V17.2432H154.389V22.1962ZM177.888 19.2434C176.227 17.4972 174.049 16.6241 171.355 16.6241C168.033 16.6241 165.605 17.8464 164.069 20.2912V9.54828H158.993V41.0556H164.069V28.2921C164.069 25.9744 164.618 24.2599 165.714 23.1487C166.811 22.0057 168.252 21.4342 170.039 21.4342C171.668 21.4342 172.953 21.9104 173.893 22.8629C174.833 23.8154 175.303 25.1807 175.303 26.9586V41.0556H180.379V26.4348C180.379 23.3868 179.549 20.9897 177.888 19.2434ZM229.327 14.9655C228.701 15.6005 227.949 15.918 227.071 15.918C226.194 15.918 225.426 15.6005 224.768 14.9655C224.141 14.2987 223.828 13.5208 223.828 12.6319C223.828 11.7429 224.141 10.9809 224.768 10.3459C225.395 9.67912 226.162 9.34575 227.071 9.34575C227.98 9.34575 228.748 9.67912 229.374 10.3459C230.001 10.9809 230.314 11.7429 230.314 12.6319C230.314 13.5208 229.985 14.2987 229.327 14.9655ZM224.533 41.0556V18.9282H229.609V41.0556H224.533ZM217.338 19.2434C215.709 17.4972 213.563 16.6241 210.899 16.6241C207.672 16.6241 205.275 17.8782 203.708 20.3864C202.267 17.8782 200.042 16.6241 197.034 16.6241C194.057 16.6241 191.816 17.7829 190.312 20.1007V17.2432H185.236V41.0556H190.312V27.7206C190.312 25.6569 190.798 24.1012 191.77 23.0534C192.741 21.9739 193.994 21.4342 195.53 21.4342C196.94 21.4342 198.021 21.8945 198.773 22.8153C199.556 23.7043 199.948 24.9743 199.948 26.6253V41.0556H205.024V27.7206C205.024 25.6252 205.478 24.0535 206.387 23.0058C207.327 21.958 208.58 21.4342 210.147 21.4342C211.557 21.4342 212.67 21.8945 213.484 22.8153C214.299 23.7043 214.706 24.9743 214.706 26.6253V41.0556H219.782V26.2919C219.782 23.3392 218.968 20.9897 217.338 19.2434ZM246.223 41.6747C242.682 41.6747 239.721 40.4682 237.34 38.0552C234.99 35.6422 233.815 32.6736 233.815 29.1494C233.815 25.5934 234.99 22.6248 237.34 20.2436C239.721 17.8306 242.682 16.6241 246.223 16.6241C248.511 16.6241 250.594 17.1797 252.474 18.2909C254.354 19.4022 255.764 20.8944 256.704 22.7677L252.333 25.3394C251.801 24.1964 250.986 23.3074 249.889 22.6724C248.824 22.0057 247.586 21.6723 246.176 21.6723C244.108 21.6723 242.369 22.3867 240.959 23.8154C239.58 25.2441 238.891 27.0221 238.891 29.1494C238.891 31.2766 239.58 33.0546 240.959 34.4834C242.369 35.9121 244.108 36.6265 246.176 36.6265C247.555 36.6265 248.793 36.2931 249.889 35.6263C251.017 34.9596 251.863 34.0706 252.427 32.9594L256.798 35.4835C255.796 37.3885 254.354 38.8966 252.474 40.0078C250.594 41.1191 248.511 41.6747 246.223 41.6747ZM265.604 25.7204C264.758 25.2442 264.335 24.6092 264.335 23.8154C264.335 22.9899 264.664 22.3708 265.322 21.958C265.98 21.5135 266.794 21.2913 267.766 21.2913C269.897 21.2913 271.369 22.1962 272.184 24.0059L276.461 21.577C275.646 20.0213 274.471 18.8148 272.936 17.9576C271.432 17.0686 269.708 16.6241 267.766 16.6241C265.322 16.6241 263.269 17.2908 261.609 18.6243C259.979 19.9578 259.164 21.7199 259.164 23.9107C259.164 25.4981 259.588 26.8158 260.434 27.8635C261.311 28.8795 262.376 29.6098 263.63 30.0542C264.883 30.4987 266.121 30.8956 267.343 31.2449C268.596 31.5624 269.646 31.9592 270.492 32.4355C271.369 32.9117 271.808 33.5309 271.808 34.2929C271.808 36.0708 270.476 36.9598 267.813 36.9598C265.149 36.9598 263.41 35.8168 262.596 33.5309L258.224 36.1026C258.977 37.8488 260.183 39.2141 261.844 40.1983C263.504 41.1826 265.494 41.6747 267.813 41.6747C270.445 41.6747 272.623 41.0238 274.346 39.7221C276.101 38.4203 276.978 36.6265 276.978 34.3405C276.978 32.7212 276.539 31.3877 275.662 30.34C274.816 29.2605 273.766 28.4985 272.513 28.054C271.26 27.6095 270.006 27.2285 268.753 26.911C267.531 26.5618 266.481 26.1649 265.604 25.7204Z" fill="#602B7A"></path> </svg> 